<svg width="68" height="68" viewBox="0 0 68 68" fill="none" xmlns="http://www.w3.org/2000/svg">
<g filter="url(#filter0_b_6004_5388)">
<path fill-rule="evenodd" clip-rule="evenodd" d="M14.1583 9.19897C9.85254 9.19897 6.36426 12.6873 6.36426 16.993V34.0001C6.36426 35.1737 7.31565 36.1251 8.48926 36.1251C9.66286 36.1251 10.6143 35.1737 10.6143 34.0001V16.993C10.6143 15.0345 12.1998 13.449 14.1583 13.449H31.8749V56.6762C31.8749 57.8498 32.8263 58.8012 33.9999 58.8012H53.8415C58.1472 58.8012 61.6355 55.3129 61.6355 51.0072V16.993C61.6355 12.6873 58.1472 9.19897 53.8415 9.19897H14.1583ZM53.8415 54.5512H36.1249V13.449H53.8415C55.8 13.449 57.3855 15.0345 57.3855 16.993V51.0072C57.3855 52.9657 55.8 54.5512 53.8415 54.5512ZM40.3795 22.6618C40.3795 21.4882 41.3309 20.5368 42.5045 20.5368H51.008C52.1816 20.5368 53.133 21.4882 53.133 22.6618C53.133 23.8354 52.1816 24.7868 51.008 24.7868H42.5045C41.3309 24.7868 40.3795 23.8354 40.3795 22.6618ZM22.6618 40.3784H11.324C10.1504 40.3784 9.19897 41.3298 9.19897 42.5034C9.19897 43.677 10.1504 44.6284 11.324 44.6284H17.5316L6.98666 55.1734C6.15679 56.0033 6.15679 57.3487 6.98666 58.1786C7.81652 59.0085 9.162 59.0085 9.99186 58.1786L20.537 47.6334V53.8415C20.537 55.0151 21.4884 55.9665 22.662 55.9665C23.8356 55.9665 24.787 55.0151 24.787 53.8415V42.5034C24.787 42.128 24.6896 41.7753 24.5188 41.4692C24.4691 41.38 24.4124 41.2937 24.3488 41.2109C23.9604 40.7048 23.3493 40.3784 22.662 40.3784H22.6618ZM42.5045 31.875C41.3309 31.875 40.3795 32.8264 40.3795 34C40.3795 35.1736 41.3309 36.125 42.5045 36.125H51.008C52.1816 36.125 53.133 35.1736 53.133 34C53.133 32.8264 52.1816 31.875 51.008 31.875H42.5045ZM40.3795 45.3382C40.3795 44.1645 41.3309 43.2132 42.5045 43.2132H51.008C52.1816 43.2132 53.133 44.1645 53.133 45.3382C53.133 46.5118 52.1816 47.4632 51.008 47.4632H42.5045C41.3309 47.4632 40.3795 46.5118 40.3795 45.3382Z" fill="#3A7326"/>
</g>
<defs>
<filter id="filter0_b_6004_5388" x="-8" y="-8" width="84" height="84" filterUnits="userSpaceOnUse" color-interpolation-filters="sRGB">
<feFlood flood-opacity="0" result="BackgroundImageFix"/>
<feGaussianBlur in="BackgroundImageFix" stdDeviation="4"/>
<feComposite in2="SourceAlpha" operator="in" result="effect1_backgroundBlur_6004_5388"/>
<feBlend mode="normal" in="SourceGraphic" in2="effect1_backgroundBlur_6004_5388" result="shape"/>
</filter>
</defs>
</svg>
