<svg width="68" height="68" viewBox="0 0 68 68" fill="none" xmlns="http://www.w3.org/2000/svg">
<g filter="url(#filter0_b_6004_5372)">
<path fill-rule="evenodd" clip-rule="evenodd" d="M30.4587 8.49996C30.4587 8.10956 30.7766 7.79163 31.167 7.79163H36.8337C37.2241 7.79163 37.542 8.10956 37.542 8.49996V14.1666C37.542 14.557 37.2241 14.875 36.8337 14.875H31.167C30.7766 14.875 30.4587 14.557 30.4587 14.1666V8.49996ZM31.167 3.54163C28.4294 3.54163 26.2087 5.76235 26.2087 8.49996V9.20829H17.0003C12.6959 9.20829 9.20866 12.6955 9.20866 17V26.2083L8.50033 26.2083C5.76272 26.2083 3.54199 28.429 3.54199 31.1666V36.8333C3.54199 39.5709 5.76272 41.7916 8.50033 41.7916H9.20866V51C9.20866 55.3044 12.6959 58.7916 17.0003 58.7916H26.2087V59.5C26.2087 62.2376 28.4294 64.4583 31.167 64.4583H36.8337C39.5713 64.4583 41.792 62.2376 41.792 59.5V58.7916H51.0003C55.3048 58.7916 58.792 55.3044 58.792 51V41.7916H59.5003C62.2379 41.7916 64.4587 39.5709 64.4587 36.8333V31.1666C64.4587 28.429 62.2379 26.2083 59.5003 26.2083H58.792V17C58.792 12.6955 55.3048 9.20829 51.0003 9.20829H41.792V8.49996C41.792 5.76235 39.5713 3.54163 36.8337 3.54163H31.167ZM13.4587 51C13.4587 52.9572 15.0431 54.5416 17.0003 54.5416H26.2087V53.8333C26.2087 51.0957 28.4294 48.875 31.167 48.875H36.8337C39.5713 48.875 41.792 51.0957 41.792 53.8333V54.5416H51.0003C52.9576 54.5416 54.542 52.9572 54.542 51V41.7916H53.8337C51.0961 41.7916 48.8753 39.5709 48.8753 36.8333V31.1666C48.8753 28.429 51.0961 26.2083 53.8337 26.2083H54.542V17C54.542 15.0427 52.9576 13.4583 51.0003 13.4583H41.792V14.1666C41.792 16.9042 39.5713 19.125 36.8337 19.125H31.167C28.4294 19.125 26.2087 16.9042 26.2087 14.1666V13.4583H17.0003C15.0431 13.4583 13.4587 15.0427 13.4587 17V26.2083L14.167 26.2083C16.9046 26.2083 19.1253 28.429 19.1253 31.1666V36.8333C19.1253 39.5709 16.9046 41.7916 14.167 41.7916H13.4587V51ZM30.4587 53.8333C30.4587 53.4429 30.7766 53.125 31.167 53.125H36.8337C37.2241 53.125 37.542 53.4429 37.542 53.8333V59.5C37.542 59.8904 37.2241 60.2083 36.8337 60.2083H31.167C30.7766 60.2083 30.4587 59.8904 30.4587 59.5V53.8333ZM8.50033 30.4583C8.10993 30.4583 7.79199 30.7762 7.79199 31.1666V36.8333C7.79199 37.2237 8.10993 37.5416 8.50033 37.5416H14.167C14.5574 37.5416 14.8753 37.2237 14.8753 36.8333V31.1666C14.8753 30.7762 14.5574 30.4583 14.167 30.4583H8.50033ZM53.1253 31.1666C53.1253 30.7762 53.4433 30.4583 53.8337 30.4583H59.5003C59.8907 30.4583 60.2087 30.7762 60.2087 31.1666V36.8333C60.2087 37.2237 59.8907 37.5416 59.5003 37.5416H53.8337C53.4433 37.5416 53.1253 37.2237 53.1253 36.8333V31.1666ZM36.692 33.9999C36.692 35.347 35.6039 36.4819 34.2128 36.4819C32.8437 36.4819 31.7337 35.3719 31.7337 34.0028C31.7337 31.9874 33.3882 31.5353 34.182 31.5238C35.5811 31.5035 36.692 32.6369 36.692 33.9999Z" fill="#3A7326"/>
</g>
<defs>
<filter id="filter0_b_6004_5372" x="-8" y="-8" width="84" height="84" filterUnits="userSpaceOnUse" color-interpolation-filters="sRGB">
<feFlood flood-opacity="0" result="BackgroundImageFix"/>
<feGaussianBlur in="BackgroundImageFix" stdDeviation="4"/>
<feComposite in2="SourceAlpha" operator="in" result="effect1_backgroundBlur_6004_5372"/>
<feBlend mode="normal" in="SourceGraphic" in2="effect1_backgroundBlur_6004_5372" result="shape"/>
</filter>
</defs>
</svg>
