<svg width="68" height="68" viewBox="0 0 68 68" fill="none" xmlns="http://www.w3.org/2000/svg">
<g filter="url(#filter0_b_6004_5362)">
<path fill-rule="evenodd" clip-rule="evenodd" d="M10.625 17C10.625 13.4792 13.4792 10.625 17 10.625H51C54.5208 10.625 57.375 13.4792 57.375 17V20.5417H10.625V17ZM6.375 22.6667V17C6.375 11.132 11.132 6.375 17 6.375H51C56.868 6.375 61.625 11.132 61.625 17V22.6667V39.6667C61.625 45.5347 56.868 50.2917 51 50.2917H42.5C41.3264 50.2917 40.375 49.3403 40.375 48.1667C40.375 46.9931 41.3264 46.0417 42.5 46.0417H51C54.5208 46.0417 57.375 43.1875 57.375 39.6667V24.7917H10.625V36.8333C10.625 38.0069 9.6736 38.9583 8.5 38.9583C7.3264 38.9583 6.375 38.0069 6.375 36.8333V22.6667ZM37.5417 36.8333C37.5417 35.6597 38.4931 34.7083 39.6667 34.7083H48.1667C49.3403 34.7083 50.2917 35.6597 50.2917 36.8333C50.2917 38.0069 49.3403 38.9583 48.1667 38.9583H39.6667C38.4931 38.9583 37.5417 38.0069 37.5417 36.8333ZM21.9583 36.8333C21.9583 35.6597 21.0069 34.7083 19.8333 34.7083C18.6597 34.7083 17.7083 35.6597 17.7083 36.8333C17.7083 41.919 13.5856 46.0417 8.5 46.0417C7.3264 46.0417 6.375 46.9931 6.375 48.1667C6.375 49.3403 7.3264 50.2917 8.5 50.2917C13.5856 50.2917 17.7083 54.4144 17.7083 59.5C17.7083 60.6736 18.6597 61.625 19.8333 61.625C21.0069 61.625 21.9583 60.6736 21.9583 59.5C21.9583 54.4144 26.081 50.2917 31.1667 50.2917C32.3403 50.2917 33.2917 49.3403 33.2917 48.1667C33.2917 46.9931 32.3403 46.0417 31.1667 46.0417C26.081 46.0417 21.9583 41.919 21.9583 36.8333ZM15.7613 48.1667C17.3939 47.1185 18.7852 45.7272 19.8333 44.0947C20.8815 45.7272 22.2728 47.1185 23.9053 48.1667C22.2728 49.2148 20.8815 50.6061 19.8333 52.2387C18.7852 50.6061 17.3939 49.2148 15.7613 48.1667Z" fill="#3A7326"/>
</g>
<defs>
<filter id="filter0_b_6004_5362" x="-8" y="-8" width="84" height="84" filterUnits="userSpaceOnUse" color-interpolation-filters="sRGB">
<feFlood flood-opacity="0" result="BackgroundImageFix"/>
<feGaussianBlur in="BackgroundImageFix" stdDeviation="4"/>
<feComposite in2="SourceAlpha" operator="in" result="effect1_backgroundBlur_6004_5362"/>
<feBlend mode="normal" in="SourceGraphic" in2="effect1_backgroundBlur_6004_5362" result="shape"/>
</filter>
</defs>
</svg>
