<svg width="68" height="68" viewBox="0 0 68 68" fill="none" xmlns="http://www.w3.org/2000/svg">
<g filter="url(#filter0_b_6004_5400)">
<path fill-rule="evenodd" clip-rule="evenodd" d="M57.8637 33.9858C58.6935 34.8156 58.6935 36.1611 57.8637 36.991L56.064 38.7907C55.2341 39.6205 53.8886 39.6205 53.0588 38.7907C52.2289 37.9608 52.2289 36.6153 53.0588 35.7855L54.8584 33.9858C55.6883 33.1559 57.0338 33.1559 57.8637 33.9858Z" fill="#3A7326"/>
<path fill-rule="evenodd" clip-rule="evenodd" d="M38.7905 53.0589C39.6204 53.8887 39.6204 55.2342 38.7905 56.0641L36.9909 57.8638C36.161 58.6936 34.8155 58.6936 33.9857 57.8638C33.1558 57.0339 33.1558 55.6884 33.9857 54.8586L35.7853 53.0589C36.6152 52.229 37.9607 52.229 38.7905 53.0589Z" fill="#3A7326"/>
<path fill-rule="evenodd" clip-rule="evenodd" d="M45.9247 29.0405C47.0983 29.0405 48.0497 29.9919 48.0497 31.1655V33.7106C48.0497 34.8842 47.0983 35.8356 45.9247 35.8356C44.751 35.8356 43.7997 34.8842 43.7997 33.7106V31.1655C43.7997 29.9919 44.751 29.0405 45.9247 29.0405Z" fill="#3A7326"/>
<path fill-rule="evenodd" clip-rule="evenodd" d="M33.9857 33.9858C34.8155 33.1559 36.161 33.1559 36.9909 33.9858L38.7905 35.7855C39.6204 36.6153 39.6204 37.9608 38.7905 38.7907C37.9607 39.6205 36.6152 39.6205 35.7853 38.7907L33.9857 36.991C33.1558 36.1611 33.1558 34.8156 33.9857 33.9858Z" fill="#3A7326"/>
<path fill-rule="evenodd" clip-rule="evenodd" d="M29.0404 45.9248C29.0404 44.7512 29.9918 43.7998 31.1654 43.7998H33.7105C34.8841 43.7998 35.8355 44.7512 35.8355 45.9248C35.8355 47.0984 34.8841 48.0498 33.7105 48.0498H31.1654C29.9918 48.0498 29.0404 47.0984 29.0404 45.9248Z" fill="#3A7326"/>
<path fill-rule="evenodd" clip-rule="evenodd" d="M42.7227 42.7227C43.7118 41.7336 45.1749 41.3882 46.502 41.8306L59.1099 46.0332C60.4782 46.4893 61.4557 47.7001 61.6131 49.1338C61.7706 50.5674 61.079 51.9615 59.8423 52.7036L55.5974 55.2506C55.4551 55.3359 55.336 55.4551 55.2506 55.5974L52.7037 59.8422C51.9616 61.079 50.5675 61.7706 49.1338 61.6133C47.7001 61.4559 46.4893 60.4783 46.0332 59.11L41.8305 46.5021C41.3881 45.175 41.7335 43.7119 42.7227 42.7227ZM46.2146 46.2146L56.6174 49.6823L53.4109 51.6062C52.6703 52.0505 52.0505 52.6703 51.6062 53.4108L49.6822 56.6175L46.2146 46.2146Z" fill="#3A7326"/>
<path fill-rule="evenodd" clip-rule="evenodd" d="M52.3974 52.3975C53.2272 51.5676 54.5727 51.5676 55.4026 52.3975L60.2082 57.2031C61.038 58.0329 61.038 59.3784 60.2082 60.2083C59.3783 61.0382 58.0328 61.0382 57.203 60.2083L52.3974 55.4027C51.5675 54.5728 51.5675 53.2274 52.3974 52.3975Z" fill="#3A7326"/>
<path fill-rule="evenodd" clip-rule="evenodd" d="M6.36426 19.8274C6.36426 18.6538 7.31565 17.7024 8.48926 17.7024H59.5105C60.6841 17.7024 61.6355 18.6538 61.6355 19.8274C61.6355 21.001 60.6841 21.9524 59.5105 21.9524H8.48926C7.31565 21.9524 6.36426 21.001 6.36426 19.8274Z" fill="#3A7326"/>
<path fill-rule="evenodd" clip-rule="evenodd" d="M16.9928 10.6144C13.47 10.6144 10.6143 13.4701 10.6143 16.9929V39.669C10.6143 43.1918 13.47 46.0476 16.9928 46.0476H19.8273C21.0009 46.0476 21.9523 46.999 21.9523 48.1726C21.9523 49.3462 21.0009 50.2976 19.8273 50.2976H16.9928C11.1228 50.2976 6.36426 45.539 6.36426 39.669V16.9929C6.36426 11.1229 11.1228 6.36438 16.9928 6.36438H51.007C56.8769 6.36438 61.6355 11.1229 61.6355 16.9929V25.4965C61.6355 26.6701 60.6841 27.6215 59.5105 27.6215C58.3369 27.6215 57.3855 26.6701 57.3855 25.4965V16.9929C57.3855 13.4701 54.5297 10.6144 51.007 10.6144H16.9928Z" fill="#3A7326"/>
</g>
<defs>
<filter id="filter0_b_6004_5400" x="-8" y="-8" width="84" height="84" filterUnits="userSpaceOnUse" color-interpolation-filters="sRGB">
<feFlood flood-opacity="0" result="BackgroundImageFix"/>
<feGaussianBlur in="BackgroundImageFix" stdDeviation="4"/>
<feComposite in2="SourceAlpha" operator="in" result="effect1_backgroundBlur_6004_5400"/>
<feBlend mode="normal" in="SourceGraphic" in2="effect1_backgroundBlur_6004_5400" result="shape"/>
</filter>
</defs>
</svg>
