<svg width="151" height="28" viewBox="0 0 151 28" fill="none" xmlns="http://www.w3.org/2000/svg">
<g clip-path="url(#clip0_6004_1809)">
<path d="M36.8477 1.18945H40.576V21.5259H46.7108V24.9154H36.8477V1.18945Z" fill="#838B7F"/>
<path d="M53.756 25.2545C51.9257 25.2545 50.5248 24.7348 49.5531 23.6954C48.5815 22.6559 48.0957 21.1872 48.0957 19.2891V6.81611C48.0957 4.91804 48.5815 3.44929 49.5531 2.40987C50.5248 1.37045 51.9257 0.850739 53.756 0.850739C55.5863 0.850739 56.9872 1.37045 57.9589 2.40987C58.9305 3.44929 59.4163 4.91804 59.4163 6.81611V19.2891C59.4163 21.1872 58.9305 22.6559 57.9589 23.6954C56.9872 24.7348 55.5863 25.2545 53.756 25.2545ZM53.756 21.8651C55.044 21.8651 55.688 21.0855 55.688 19.5264V6.57885C55.688 5.01972 55.044 4.24015 53.756 4.24015C52.468 4.24015 51.824 5.01972 51.824 6.57885V19.5264C51.824 21.0855 52.468 21.8651 53.756 21.8651Z" fill="#838B7F"/>
<path d="M67.2256 25.2545C65.418 25.2545 64.0396 24.7461 63.0905 23.7292C62.1415 22.6899 61.667 21.2098 61.667 19.2891V6.81608C61.667 4.89541 62.1415 3.42666 63.0905 2.40984C64.0396 1.37042 65.418 0.850708 67.2256 0.850708C69.0333 0.850708 70.4117 1.37042 71.3607 2.40984C72.3098 3.42666 72.7843 4.89541 72.7843 6.81608V8.84972H69.2593V6.57882C69.2593 5.01968 68.6153 4.24012 67.3273 4.24012C66.0394 4.24012 65.3954 5.01968 65.3954 6.57882V19.5603C65.3954 21.0969 66.0394 21.8651 67.3273 21.8651C68.6153 21.8651 69.2593 21.0969 69.2593 19.5603V14.9168H67.3951V11.5274H72.7843V19.2891C72.7843 21.2098 72.3098 22.6899 71.3607 23.7292C70.4117 24.7461 69.0333 25.2545 67.2256 25.2545Z" fill="#838B7F"/>
<path d="M80.5665 25.2545C78.7363 25.2545 77.3353 24.7348 76.3637 23.6954C75.392 22.6559 74.9062 21.1872 74.9062 19.2891V6.81611C74.9062 4.91804 75.392 3.44929 76.3637 2.40987C77.3353 1.37045 78.7363 0.850739 80.5665 0.850739C82.3969 0.850739 83.7978 1.37045 84.7694 2.40987C85.7411 3.44929 86.2269 4.91804 86.2269 6.81611V19.2891C86.2269 21.1872 85.7411 22.6559 84.7694 23.6954C83.7978 24.7348 82.3969 25.2545 80.5665 25.2545ZM80.5665 21.8651C81.8545 21.8651 82.4985 21.0855 82.4985 19.5264V6.57885C82.4985 5.01972 81.8545 4.24015 80.5665 4.24015C79.2786 4.24015 78.6346 5.01972 78.6346 6.57885V19.5264C78.6346 21.0855 79.2786 21.8651 80.5665 21.8651Z" fill="#838B7F"/>
<path d="M88.7559 1.18945H92.4842V24.9154H88.7559V1.18945Z" fill="#838B7F"/>
<path d="M95.2764 1.18945H100.767C102.62 1.18945 104.01 1.68657 104.936 2.6808C105.863 3.67502 106.326 5.13247 106.326 7.05314V9.39182C106.326 11.3125 105.863 12.7699 104.936 13.7642C104.01 14.7584 102.62 15.2555 100.767 15.2555H99.005V24.9154H95.2764V1.18945ZM100.767 11.8661C101.378 11.8661 101.829 11.6966 102.123 11.3577C102.44 11.0187 102.597 10.4426 102.597 9.62907V6.81589C102.597 6.00242 102.44 5.42622 102.123 5.08728C101.829 4.74834 101.378 4.57887 100.767 4.57887H99.005V11.8661H100.767Z" fill="#838B7F"/>
<path d="M113.33 25.2545C111.523 25.2545 110.155 24.7461 109.229 23.7293C108.303 22.6899 107.839 21.2098 107.839 19.2891V17.9334H111.364V19.5603C111.364 21.0969 112.008 21.8651 113.296 21.8651C113.929 21.8651 114.403 21.6843 114.719 21.3228C115.058 20.9387 115.228 20.3286 115.228 19.4925C115.228 18.4983 115.002 17.6283 114.55 16.8827C114.099 16.1144 113.262 15.1992 112.042 14.1372C110.505 12.7814 109.432 11.5613 108.822 10.4767C108.212 9.36946 107.907 8.12668 107.907 6.74832C107.907 4.87285 108.381 3.42669 109.33 2.40987C110.28 1.37045 111.658 0.850739 113.466 0.850739C115.25 0.850739 116.595 1.37045 117.499 2.40987C118.426 3.42669 118.889 4.89544 118.889 6.81611V7.79904H115.363V6.57885C115.363 5.76539 115.206 5.17789 114.889 4.81635C114.573 4.43222 114.11 4.24015 113.5 4.24015C112.256 4.24015 111.636 4.99712 111.636 6.51106C111.636 7.36971 111.862 8.17187 112.313 8.91754C112.787 9.66318 113.635 10.567 114.856 11.6291C116.414 12.9848 117.488 14.2164 118.076 15.3236C118.663 16.4308 118.957 17.73 118.957 19.2214C118.957 21.1646 118.47 22.6559 117.499 23.6954C116.55 24.7348 115.16 25.2545 113.33 25.2545Z" fill="#838B7F"/>
<path d="M126.518 25.2543C124.71 25.2543 123.332 24.7459 122.382 23.729C121.433 22.6897 120.959 21.2096 120.959 19.2889V1.18945H124.688V19.5601C124.688 20.3735 124.845 20.961 125.162 21.3226C125.501 21.6841 125.976 21.8649 126.585 21.8649C127.196 21.8649 127.658 21.6841 127.975 21.3226C128.314 20.961 128.484 20.3735 128.484 19.5601V1.18945H132.076V19.2889C132.076 21.2096 131.602 22.6897 130.653 23.729C129.703 24.7459 128.325 25.2543 126.518 25.2543Z" fill="#838B7F"/>
<path d="M134.73 1.18945H140.052L142.425 18.1704H142.492L144.866 1.18945H150.186V24.9154H146.661V6.95146H146.594L143.882 24.9154H140.764L138.052 6.95146H137.985V24.9154H134.73V1.18945Z" fill="#838B7F"/>
<path d="M0.853516 24.9156C5.44036 24.9156 9.1587 21.1972 9.1587 16.6104C9.1587 12.0236 5.44036 8.30521 0.853516 8.30521V14.1188C2.22956 14.1188 3.34506 15.2343 3.34506 16.6104C3.34506 17.9864 2.22956 19.102 0.853516 19.102V24.9156Z" fill="#838B7F"/>
<path d="M28.5379 11.0736C27.1187 10.624 25.6074 10.3815 24.0393 10.3815C15.8212 10.3815 9.15918 17.0436 9.15918 25.2616C9.15918 26.0865 9.2263 26.8957 9.35535 27.684H18.6008C18.2708 26.944 18.0873 26.1243 18.0873 25.2616C18.0873 21.9744 20.7521 19.3096 24.0393 19.3096C25.8359 19.3096 27.4466 20.1056 28.5379 21.3642V11.0736Z" fill="#838B7F"/>
<path d="M2.31348 0C3.00203 6.22882 8.28288 11.0736 14.6953 11.0736C21.1075 11.0736 26.3884 6.22882 27.0769 0H18.1678C17.6178 1.37881 16.2703 2.35313 14.6953 2.35313C13.1202 2.35313 11.7727 1.37881 11.2226 0H2.31348Z" fill="#838B7F"/>
</g>
<defs>
<clipPath id="clip0_6004_1809">
<rect width="149.333" height="28" fill="white" transform="translate(0.853516)"/>
</clipPath>
</defs>
</svg>
