<svg width="150" height="36" viewBox="0 0 150 36" fill="none" xmlns="http://www.w3.org/2000/svg">
<g clip-path="url(#clip0_6004_1762)">
<path d="M45.5361 24.7065H56.0306V21.5455H49.2661V9.63916H45.5361V24.7065Z" fill="#838B7F"/>
<path d="M62.2481 22.5992C60.7519 22.5992 59.9722 21.2927 59.9722 19.3329C59.9722 17.3731 60.7519 16.0455 62.2481 16.0455C63.7443 16.0455 64.5451 17.3731 64.5451 19.3329C64.5451 21.2927 63.7443 22.5992 62.2481 22.5992ZM62.2692 25.0437C65.7462 25.0437 68.0221 22.5782 68.0221 19.3329C68.0221 16.0876 65.7462 13.6221 62.2692 13.6221C58.8132 13.6221 56.4951 16.0876 56.4951 19.3329C56.4951 22.5782 58.8132 25.0437 62.2692 25.0437Z" fill="#838B7F"/>
<path d="M74.0401 28.4365C75.6417 28.4365 77.0536 28.0783 78.0019 27.2353C78.8659 26.4556 79.4349 25.2755 79.4349 23.6529V13.9171H76.1475V15.0761H76.1053C75.4731 14.17 74.5037 13.601 73.0708 13.601C70.3945 13.601 68.54 15.8347 68.54 18.9957C68.54 22.3042 70.7949 24.1165 73.2183 24.1165C74.5248 24.1165 75.3467 23.5897 75.9789 22.8732H76.0632V23.9479C76.0632 25.2544 75.452 26.0131 73.998 26.0131C72.86 26.0131 72.2911 25.5284 72.1014 24.9594H68.7718C69.109 27.2143 71.0688 28.4365 74.0401 28.4365ZM74.0191 21.5666C72.7336 21.5666 71.8907 20.513 71.8907 18.8903C71.8907 17.2466 72.7336 16.193 74.0191 16.193C75.452 16.193 76.2107 17.4152 76.2107 18.8693C76.2107 20.3865 75.5153 21.5666 74.0191 21.5666Z" fill="#838B7F"/>
<path d="M86.1944 22.5992C84.6982 22.5992 83.9185 21.2927 83.9185 19.3329C83.9185 17.3731 84.6982 16.0455 86.1944 16.0455C87.6906 16.0455 88.4914 17.3731 88.4914 19.3329C88.4914 21.2927 87.6906 22.5992 86.1944 22.5992ZM86.2155 25.0437C89.6925 25.0437 91.9684 22.5782 91.9684 19.3329C91.9684 16.0876 89.6925 13.6221 86.2155 13.6221C82.7595 13.6221 80.4414 16.0876 80.4414 19.3329C80.4414 22.5782 82.7595 25.0437 86.2155 25.0437Z" fill="#838B7F"/>
<path d="M92.9717 24.7065H96.4066V13.917H92.9717V24.7065ZM92.9717 12.4208H96.4066V9.63916H92.9717V12.4208Z" fill="#838B7F"/>
<path d="M97.8975 28.2679H101.332V23.5896H101.375C102.049 24.4958 103.039 25.0437 104.43 25.0437C107.254 25.0437 109.129 22.8099 109.129 19.3118C109.129 16.0665 107.38 13.601 104.514 13.601C103.039 13.601 101.986 14.2542 101.248 15.2236H101.185V13.9171H97.8975V28.2679ZM103.545 22.3885C102.07 22.3885 101.227 21.1873 101.227 19.4382C101.227 17.6891 101.986 16.3615 103.482 16.3615C104.957 16.3615 105.652 17.5838 105.652 19.4382C105.652 21.2716 104.852 22.3885 103.545 22.3885Z" fill="#838B7F"/>
<path d="M114.722 25.0437C117.546 25.0437 119.632 23.8214 119.632 21.4612C119.632 18.7007 117.398 18.216 115.502 17.8999C114.132 17.647 112.91 17.5416 112.91 16.783C112.91 16.1087 113.563 15.7926 114.406 15.7926C115.354 15.7926 116.007 16.0876 116.134 17.057H119.295C119.126 14.9286 117.482 13.601 114.427 13.601C111.877 13.601 109.77 14.7811 109.77 17.057C109.77 19.5857 111.772 20.0915 113.647 20.4076C115.08 20.6605 116.387 20.7658 116.387 21.7352C116.387 22.4306 115.733 22.8099 114.701 22.8099C113.563 22.8099 112.846 22.2831 112.72 21.2084H109.475C109.58 23.5896 111.561 25.0437 114.722 25.0437Z" fill="#838B7F"/>
<path d="M124.297 25.0227C125.793 25.0227 126.742 24.4326 127.521 23.379H127.584V24.7066H130.872V13.9171H127.437V19.944C127.437 21.2295 126.72 22.1146 125.54 22.1146C124.445 22.1146 123.918 21.4613 123.918 20.2812V13.9171H120.504V20.9977C120.504 23.4 121.81 25.0227 124.297 25.0227Z" fill="#838B7F"/>
<path d="M132.366 24.7065H135.801V18.6585C135.801 17.373 136.433 16.4669 137.508 16.4669C138.541 16.4669 139.025 17.1412 139.025 18.3003V24.7065H142.46V18.6585C142.46 17.373 143.071 16.4669 144.167 16.4669C145.2 16.4669 145.684 17.1412 145.684 18.3003V24.7065H149.119V17.6891C149.119 15.2657 147.897 13.601 145.453 13.601C144.062 13.601 142.903 14.191 142.06 15.4975H142.018C141.47 14.3385 140.395 13.601 138.983 13.601C137.424 13.601 136.391 14.3385 135.717 15.4554H135.654V13.9171H132.366V24.7065Z" fill="#838B7F"/>
<path fill-rule="evenodd" clip-rule="evenodd" d="M18.1616 35.2431C27.8602 35.2431 35.7226 27.3808 35.7226 17.6821C35.7226 7.98352 27.8602 0.121201 18.1616 0.121201C8.46289 0.121201 0.600586 7.98352 0.600586 17.6821C0.600586 27.3808 8.46289 35.2431 18.1616 35.2431ZM23.64 8.30184C23.9067 7.35461 22.9874 6.79448 22.1479 7.39258L10.4287 15.7413C9.51824 16.3899 9.66145 17.6821 10.6438 17.6821H13.7298V17.6583H19.7443L14.8436 19.3874L12.6832 27.0625C12.4165 28.0098 13.3356 28.5699 14.1752 27.9717L25.8945 19.6231C26.8049 18.9745 26.6616 17.6821 25.6793 17.6821H20.9995L23.64 8.30184Z" fill="#838B7F"/>
</g>
<defs>
<clipPath id="clip0_6004_1762">
<rect width="149.268" height="36" fill="white"/>
</clipPath>
</defs>
</svg>
