<svg width="61" height="48" viewBox="0 0 61 48" fill="none" xmlns="http://www.w3.org/2000/svg">
<g clip-path="url(#clip0_6004_1825)">
<path d="M43.1334 6.17509C43.0339 6.441 43.0149 6.63257 43.0608 6.7918C43.1116 7.00832 43.2432 7.07921 43.4219 7.02414C45.1028 6.61775 48.7887 7.77127 50.1533 8.09277C50.4751 8.16028 50.7369 7.75408 50.5173 7.38989C50.1968 7.0372 46.5126 5.5272 45.1068 5.44487C44.5558 5.41442 43.5707 5.27627 43.1334 6.17509Z" fill="#838B7F"/>
<path d="M57.5379 1.28729C57.717 1.38838 57.8172 1.48482 57.8666 1.59257C57.9402 1.7339 57.9014 1.83169 57.7777 1.88159C56.6666 2.4118 55.1881 4.69442 54.5913 5.48168C54.4466 5.66278 54.1129 5.55754 54.0625 5.25972C54.0729 4.92298 55.3835 2.44582 56.1149 1.77113C56.4024 1.5077 56.8773 0.99084 57.5379 1.28729Z" fill="#838B7F"/>
<path d="M48.6904 0.163414C48.9057 0.0048206 49.1293 -0.0507552 49.2435 0.0523104C50.9199 1.45407 51.8089 3.67389 52.3594 5.70608C52.3801 5.75342 52.3814 5.82136 52.3648 5.89224C52.3579 5.95282 52.3127 6.01681 52.2408 6.06633C52.164 6.12099 52.0979 6.13764 52.0668 6.09053C51.3321 5.11344 47.1357 1.31173 48.6904 0.163414Z" fill="#838B7F"/>
<path d="M13.1904 24.4665C13.5922 24.174 14.029 23.9305 14.4912 23.7416C14.9748 23.6064 15.4903 23.6288 15.9597 23.8055C16.429 23.9822 16.8268 24.3035 17.0928 24.7209C17.3307 25.1372 17.4238 25.6178 17.3581 26.0904C17.2924 26.5629 17.0715 27.0017 16.7286 27.3409C16.4627 27.6158 16.1608 27.8553 15.8311 28.0532C14.3612 28.9816 12.8782 29.8592 11.3953 30.7876C11.0918 31.02 10.77 31.2285 10.4327 31.4109C9.91966 31.661 9.33336 31.728 8.77515 31.6003C8.21695 31.4726 7.72197 31.1581 7.37578 30.7114C7.11698 30.395 6.89857 30.0491 6.72537 29.6811C5.32049 26.794 3.86359 23.9196 2.51075 20.9816C1.88635 19.7098 1.37904 18.2471 0.884734 16.8353C0.670874 16.4252 0.629112 15.9496 0.76834 15.5098C0.907569 15.0699 1.2168 14.7005 1.63026 14.4802C2.04373 14.2598 2.52879 14.2059 2.9823 14.3299C3.43582 14.4538 3.822 14.7458 4.0587 15.1438C4.78629 16.0892 5.43035 17.0933 5.98391 18.1454C7.38878 20.6891 8.72862 23.2328 10.0815 25.7002C10.1602 25.8365 10.2471 25.9681 10.3416 26.0944C11.3599 25.6759 12.3176 25.1285 13.1904 24.4665Z" fill="#838B7F"/>
<path d="M27.7156 23.579C24.5026 27.2546 19.1172 26.3261 16.4115 21.5948C14.4863 18.2371 14.1481 12.6918 18.3368 9.19422C19.2312 8.46197 20.3007 7.96315 21.4457 7.74429C22.8494 7.54752 24.2809 7.78966 25.5355 8.43611C26.79 9.08256 27.8035 10.1002 28.4311 11.3437C30.7205 15.4136 30.3953 20.6028 27.7156 23.579ZM26.4148 15.0066C26.0734 14.0065 25.3886 13.1526 24.4765 12.59C23.9604 12.2304 23.3333 12.0555 22.7007 12.0949C22.0681 12.1342 21.4688 12.3855 21.0034 12.8062C19.1433 14.4216 18.753 18.2499 20.1058 20.5265C20.2783 20.8977 20.5315 21.2276 20.8479 21.4932C21.1644 21.7587 21.5364 21.9534 21.9379 22.0636C22.3393 22.1739 22.7605 22.197 23.1721 22.1314C23.5837 22.0658 23.9756 21.9131 24.3205 21.6839C25.3289 20.9195 26.0686 19.8669 26.4369 18.6726C26.8053 17.4782 26.7839 16.2013 26.3758 15.0194L26.4148 15.0066Z" fill="#838B7F"/>
<path d="M40.828 16.6093C40.4991 16.6785 40.1593 16.6826 39.8286 16.6214C39.4981 16.5602 39.1832 16.4351 38.9029 16.2532C38.6575 16.116 38.4463 15.9274 38.2844 15.7008C38.1226 15.4742 38.0142 15.2155 37.967 14.9429C37.9196 14.6705 37.9348 14.3913 38.011 14.1252C38.0874 13.8591 38.2232 13.6129 38.4086 13.4042C38.7315 12.9849 39.1899 12.6847 39.7094 12.5521C41.0657 12.1672 42.462 11.9326 43.872 11.8526C44.1818 11.8174 44.4956 11.843 44.7951 11.928C45.0946 12.0131 45.3737 12.1557 45.6161 12.3477C45.8584 12.5396 46.0591 12.7769 46.2064 13.0457C46.3536 13.3145 46.4444 13.6094 46.4736 13.913C46.88 15.4043 46.9245 16.9679 46.6036 18.479C45.4329 23.3629 41.4004 25.0417 36.8736 23.4773C35.6029 23.0591 34.4887 22.2797 33.6736 21.2389C32.5864 19.9855 31.8156 18.5 31.4232 16.9019C31.1053 15.4788 31.1401 14.0021 31.5248 12.595C31.9095 11.1878 32.6329 9.891 33.6345 8.81286C34.5852 7.64104 35.819 6.71881 37.2248 6.12923C38.1132 5.65049 39.1527 5.51436 40.1386 5.74768C40.3623 5.8082 40.5653 5.92613 40.7266 6.08923C40.888 6.25234 41.0018 6.45467 41.0562 6.67526C41.1106 6.89585 41.1037 7.12665 41.0361 7.34374C40.9685 7.56082 40.8428 7.75628 40.672 7.90984C40.3471 8.19734 39.9942 8.45294 39.6183 8.67295C38.4618 9.39302 37.4554 10.3209 36.6524 11.4074C36.1261 12.1105 35.7636 12.9179 35.5905 13.7726C35.4174 14.6273 35.438 15.5088 35.6509 16.355C35.9458 17.5088 36.6005 18.5444 37.524 19.3184C40.3857 21.8621 44.1061 19.4074 43.4557 15.9352C42.5061 16.1642 41.6736 16.4059 40.828 16.6093Z" fill="#838B7F"/>
<path d="M58.3115 23.7823C54.0839 26.3261 49.271 23.7823 48.2172 18.4405C47.4498 14.625 48.9067 9.28314 54.0059 7.24817C55.0908 6.82452 56.2676 6.67577 57.427 6.81574C58.82 7.06506 60.0979 7.73557 61.0804 8.73274C62.0628 9.72989 62.7006 11.0034 62.9034 12.3738C63.7619 16.9142 61.8107 21.7601 58.3115 23.7823ZM59.7815 15.2227C59.7802 14.1661 59.398 13.1437 58.7019 12.3356C58.3298 11.8357 57.7918 11.4776 57.1798 11.3221C56.5677 11.1668 55.9196 11.2237 55.3457 11.4835C53.0563 12.45 51.4433 15.9604 52.0287 18.5423C52.0734 18.9475 52.208 19.3382 52.4232 19.6872C52.6385 20.0362 52.9291 20.335 53.2748 20.5628C53.6204 20.7905 54.0128 20.9417 54.4244 21.0057C54.8361 21.0696 55.2571 21.045 55.6579 20.9334C56.868 20.52 57.9159 19.7476 58.6551 18.7237C59.3944 17.6999 59.7882 16.4759 59.7815 15.2227Z" fill="#838B7F"/>
<path fill-rule="evenodd" clip-rule="evenodd" d="M7.69499 35.0711C7.5414 35.4063 7.49928 35.7801 7.57433 36.1397C7.62426 36.6139 7.73393 37.0802 7.90084 37.5281C8.10923 38.0767 8.34241 38.6191 8.62993 39.2876C8.69605 39.4414 8.76515 39.602 8.83745 39.7709C9.22518 40.6766 9.71168 41.8341 10.3606 43.5092C10.5443 43.985 10.7074 44.4648 10.8716 44.9479C10.938 45.143 11.0046 45.3388 11.0727 45.5351C11.3171 46.2328 11.7374 46.8597 12.2947 47.3565C12.5313 47.6295 12.8452 47.8285 13.1971 47.928C13.5559 48.0295 13.9375 48.023 14.2925 47.9096C14.6474 47.796 14.9592 47.5807 15.1873 47.2915C15.411 47.0079 15.544 46.6663 15.5698 46.3093C15.7149 45.614 15.6654 44.893 15.4262 44.2226C15.0467 43.1096 14.6144 41.9949 14.1158 40.9046L14.1136 40.8998C13.2934 39.1941 12.4597 37.5001 11.5866 35.8055L11.5801 35.7936C11.3245 35.3521 10.9923 34.9574 10.5985 34.6273C10.3428 34.3327 9.99017 34.1339 9.60072 34.0654C9.20296 33.9955 8.79274 34.0659 8.44327 34.2644C8.11268 34.4489 7.85063 34.7314 7.69499 35.0711Z" fill="#838B7F"/>
<path fill-rule="evenodd" clip-rule="evenodd" d="M20.2211 30.8712C18.9352 30.5456 17.5921 30.4981 16.2857 30.7322C15.2737 30.8296 14.2785 31.0579 13.5874 31.5099C13.2359 31.74 12.9517 32.0354 12.7937 32.4109C12.6347 32.7885 12.6144 33.2203 12.7447 33.7013C12.9825 34.5826 13.2913 35.4394 13.5991 36.2935L13.6489 36.4318L13.6501 36.4348C14.5768 38.916 15.5122 41.3888 16.4562 43.853C16.5663 44.2414 16.7219 44.616 16.92 44.9693L16.9237 44.9759C17.1855 45.4149 17.5211 45.8075 17.9166 46.1373C18.1144 46.3186 18.3589 46.444 18.6241 46.5001C18.892 46.5566 19.1705 46.5403 19.4293 46.4525C19.6883 46.3649 19.9176 46.2095 20.0924 46.0031C20.2643 45.8001 20.3769 45.5555 20.4183 45.2952C20.5889 44.5881 20.5342 43.8468 20.2615 43.1709C20.1764 42.9434 20.1096 42.7109 20.0393 42.4663C20.0158 42.3847 19.992 42.3016 19.9669 42.2171C22.1277 41.3913 24.4268 40.2808 25.2353 37.6976C25.5519 36.8049 25.5783 35.8382 25.3108 34.9301C25.0431 34.0211 24.4938 33.2153 23.7387 32.6239C22.7109 31.7959 21.5104 31.1976 20.2211 30.8712ZM16.6566 34.0397C16.6991 34.0277 16.742 34.0166 16.785 34.0063C18.1917 33.79 19.6309 34.0781 20.8377 34.8173C21.3695 35.179 21.5874 35.5808 21.6248 35.9674C21.6634 36.3655 21.5154 36.7968 21.218 37.2115C20.6561 37.9947 19.6306 38.6217 18.7043 38.7385C18.0291 37.218 17.3433 35.636 16.6566 34.0397Z" fill="#838B7F"/>
<path d="M28.7944 28.088C30.3259 27.3964 32.2228 27.277 33.7072 27.7632C34.0811 27.8697 34.4054 28.1 34.6248 28.4147C34.8428 28.7275 34.9433 29.1044 34.9097 29.4812C34.9076 29.7257 34.8461 29.9664 34.7306 30.1835C34.613 30.4045 34.4427 30.5945 34.2341 30.7377C34.0256 30.8807 33.7848 30.9727 33.5323 31.0055C33.2796 31.0384 33.0227 31.0114 32.783 30.9266L32.7648 30.9202L32.7477 30.9113C32.6251 30.8486 32.4948 30.8014 32.3601 30.7706L32.3516 30.7688C31.3073 30.4976 30.3224 30.9469 29.9626 31.499C29.791 31.7623 29.7697 32.028 29.9126 32.2697C30.0657 32.5286 30.4411 32.8191 31.2007 33.0262C31.4096 33.0823 31.6237 33.1364 31.8409 33.1913C32.4416 33.3434 33.0658 33.5014 33.6694 33.7203L33.6717 33.7212C36.4563 34.7571 37.4932 36.9026 37.1383 38.9206C36.7871 40.9162 35.0825 42.7323 32.5192 43.1607C31.5865 43.3629 30.6158 43.3235 29.7033 43.0465C28.7884 42.7687 27.9638 42.2617 27.3113 41.5757L27.2943 41.5579C27.0884 41.2994 26.9498 40.9958 26.8884 40.6737C26.8319 40.3829 26.8617 40.0825 26.974 39.8077C27.0857 39.5345 27.2747 39.2981 27.5185 39.1259C27.7761 38.9306 28.0865 38.8135 28.4115 38.789C28.7354 38.7647 29.0595 38.8335 29.3439 38.9869C29.628 39.1211 29.8922 39.2923 30.1294 39.4958L30.1339 39.4995C30.5534 39.8747 31.061 39.9724 31.5478 39.8819C32.0416 39.79 32.506 39.5043 32.8047 39.1252C33.1015 38.7485 33.2206 38.3011 33.0792 37.8667C32.9369 37.4291 32.5092 36.9388 31.5694 36.529C31.3237 36.427 31.069 36.3447 30.804 36.2647C30.7325 36.2431 30.6599 36.2216 30.5864 36.1997C30.3904 36.1416 30.1888 36.0817 29.9912 36.0157C29.855 35.9703 29.72 35.9273 29.5862 35.8847C29.2207 35.7683 28.8643 35.6548 28.5213 35.5027C27.7748 35.2541 27.1298 34.777 26.6824 34.1417C26.2332 33.504 26.0072 32.7413 26.0379 31.9677C26.0403 30.0823 27.2548 28.7833 28.7944 28.088Z" fill="#838B7F"/>
<path d="M48.2094 27.8871C47.9124 27.7453 47.5841 27.678 47.254 27.6912C46.9237 27.7045 46.6021 27.7979 46.3182 27.9632C46.036 28.1272 45.7997 28.357 45.6304 28.632C45.4751 28.8636 45.3677 29.1226 45.3141 29.3945C45.2606 29.6663 45.2619 29.9456 45.3178 30.2167C45.3731 30.5651 45.4344 30.9039 45.495 31.2381C45.5952 31.7911 45.6928 32.3316 45.7571 32.8827L45.7595 32.8967C45.906 33.761 45.9827 34.6352 45.9896 35.5112L45.9903 35.5236C46.0403 36.4696 45.7107 37.3972 45.0719 38.1096L45.0618 38.1223C44.854 38.3827 44.5761 38.5814 44.2592 38.6963C43.9424 38.8112 43.5992 38.8376 43.2679 38.7725C42.9366 38.7075 42.6304 38.5537 42.3834 38.3282C42.1364 38.1027 41.9583 37.8136 41.8693 37.495C41.6795 36.8233 41.5697 36.1324 41.5417 35.4362L41.866 30.3893C41.8708 30.3235 41.8762 30.2558 41.8818 30.1875C41.8941 30.0343 41.9068 29.8781 41.912 29.7325C41.9196 29.5183 41.9131 29.2979 41.862 29.0893C41.8098 28.8761 41.7104 28.6733 41.5341 28.5007C41.3596 28.3297 41.1239 28.2036 40.8274 28.1177C40.2912 27.966 39.8379 27.9708 39.4601 28.1276C39.0821 28.2843 38.8231 28.5754 38.6398 28.9116C38.458 29.245 38.3411 29.6397 38.2528 30.035C38.1872 30.3284 38.1345 30.6363 38.0844 30.9295C38.0671 31.0305 38.0502 31.1296 38.0331 31.226L38.0326 31.2288C37.7647 32.8364 37.6849 34.4686 37.7949 36.0938C37.8154 36.9721 38.0027 37.8391 38.3475 38.6504C38.7364 39.6972 39.4408 40.6042 40.3677 41.2516C41.2966 41.9004 42.4051 42.2579 43.5464 42.2768C44.6877 42.2956 45.808 41.975 46.7588 41.3575C47.7081 40.7408 48.4438 39.8569 48.8686 38.8228C49.4628 37.5056 49.7419 36.073 49.6843 34.6343C49.6494 33.584 49.5909 32.5256 49.5328 31.4725C49.5042 30.956 49.4757 30.4405 49.4502 29.9282C49.4373 29.4145 49.2641 28.9169 48.9536 28.5023C48.7615 28.2401 48.5058 28.0287 48.2094 27.8871Z" fill="#838B7F"/>
<path d="M58.7197 35.8007C58.6896 35.8381 58.6578 35.8768 58.6247 35.9171C58.3831 34.5548 58.1593 33.1929 57.9351 31.8289C57.8547 31.3395 57.7739 30.8481 57.6926 30.358L57.6834 30.3034L57.6537 30.2561C57.5978 30.1672 57.5922 30.0801 57.5922 29.8942V29.8727L57.5888 29.8514C57.5282 29.4675 57.3506 29.1103 57.0793 28.8264C56.8087 28.5433 56.4573 28.3463 56.0708 28.2608C55.685 28.1677 55.2795 28.1882 54.9054 28.3198C54.5323 28.451 54.2071 28.6869 53.9704 28.9978C53.7736 29.2364 53.6122 29.501 53.4914 29.7838C53.217 30.3929 52.9403 31.0036 52.6627 31.616L52.6579 31.6265C51.9651 33.1552 51.2676 34.6942 50.5903 36.2452L50.5882 36.2503C50.1725 37.256 49.8293 38.3157 49.4873 39.3721C49.419 39.583 49.3507 39.7937 49.2819 40.004C49.1584 40.3373 49.1044 40.6915 49.1229 41.0455C49.1005 41.3624 49.178 41.6785 49.3454 41.9511C49.516 42.2293 49.7716 42.4481 50.0761 42.577C50.3988 42.7153 50.7595 42.7447 51.1013 42.6604C51.4423 42.5763 51.7452 42.3839 51.9621 42.1133C52.2392 41.7801 52.4776 41.4166 52.672 41.0315C53.2457 39.8841 53.794 38.7227 54.3398 37.5663C54.551 37.119 54.7562 36.7185 54.9896 36.2822C55.0057 36.336 55.022 36.3885 55.0389 36.4411C55.2836 37.4943 55.6967 38.5032 56.2627 39.4307C56.3699 39.6272 56.5191 39.7989 56.7002 39.934C56.8834 40.0708 57.095 40.1668 57.32 40.2156C57.5451 40.2644 57.7783 40.2646 58.0035 40.2162C58.2283 40.168 58.4405 40.0719 58.6239 39.9358L58.9868 39.6701L61.8039 37.3501L61.6373 38.3881C61.4087 39.8149 61.1817 41.2298 60.9406 42.6451C60.7829 43.2723 60.7831 43.9275 60.9413 44.5546C61.0098 44.9075 61.1844 45.2324 61.4427 45.4879C61.7032 45.7454 62.0368 45.9204 62.4003 45.9902C62.7638 46.0599 63.1404 46.0213 63.481 45.8792C63.8168 45.7392 64.1024 45.5051 64.3021 45.2067C64.7666 44.6433 65.0557 43.9611 65.1351 43.2415C65.2547 42.2252 65.3897 41.195 65.5249 40.1652C65.6805 38.9782 65.8362 37.7915 65.9677 36.6276L65.9681 36.624C66.0946 35.3499 66.1559 34.0706 66.1516 32.7905C66.1793 32.386 66.0763 31.9831 65.8568 31.6387C65.6366 31.2931 65.3104 31.0244 64.9249 30.8707C64.5239 30.6924 64.0749 30.6447 63.6441 30.7348C63.2162 30.8243 62.8288 31.0449 62.5382 31.3644C62.0186 31.8343 61.5312 32.3371 61.079 32.8695L61.0759 32.8731C60.5823 33.4745 60.092 34.0877 59.6049 34.697C59.3088 35.0674 59.0134 35.4369 58.7197 35.8007Z" fill="#838B7F"/>
</g>
<defs>
<clipPath id="clip0_6004_1825">
<rect width="76.3636" height="48" fill="white" transform="translate(0.6875)"/>
</clipPath>
</defs>
</svg>
