<svg width="106" height="40" viewBox="0 0 106 40" fill="none" xmlns="http://www.w3.org/2000/svg">
<g clip-path="url(#clip0_6004_1796)">
<path d="M48.9893 35.2381H51.7237V24.9238H48.9893V35.2381ZM48.9893 23.3153H51.7237V20.8624H48.9893V23.3153Z" fill="#838B7F"/>
<path d="M53.4854 38.6162H56.2197V34.0723H56.2601C56.8431 34.9569 57.788 35.54 59.2356 35.54C61.8896 35.54 63.6992 33.4289 63.6992 30.0913C63.6992 26.8743 61.9499 24.6426 59.2155 24.6426C57.8081 24.6426 56.8431 25.3061 56.1796 26.2108H56.1193V24.9241H53.4854V38.6162ZM58.6526 33.268C57.024 33.268 56.1595 32.0416 56.1595 30.1717C56.1595 28.322 56.8431 26.8542 58.5521 26.8542C60.241 26.8542 60.9245 28.2214 60.9245 30.1717C60.9245 32.122 60.0399 33.268 58.6526 33.268Z" fill="#838B7F"/>
<path d="M69.1546 35.54C71.7281 35.54 73.4974 34.2934 73.4974 32.2225C73.4974 29.8098 71.5874 29.3273 69.8583 28.9654C68.3905 28.6638 67.0233 28.5833 67.0233 27.6987C67.0233 26.9548 67.727 26.5526 68.7927 26.5526C69.9588 26.5526 70.6625 26.9548 70.7831 28.0606H73.2562C73.0551 25.9897 71.5472 24.6426 68.8329 24.6426C66.4805 24.6426 64.6307 25.7082 64.6307 27.9399C64.6307 30.1918 66.4403 30.6945 68.29 31.0564C69.6974 31.3378 71.0043 31.4384 71.0043 32.4236C71.0043 33.1474 70.3207 33.6098 69.1143 33.6098C67.8879 33.6098 67.0434 33.0871 66.8625 31.9008H64.3291C64.49 34.0924 66.1588 35.54 69.1546 35.54Z" fill="#838B7F"/>
<path d="M83.879 35.2381V24.9238H81.1446V30.8751C81.1446 32.2423 80.3605 33.2074 79.0737 33.2074C77.9076 33.2074 77.3647 32.5439 77.3647 31.3375V24.9238H74.6504V31.8C74.6504 34.0518 75.9372 35.5196 78.2293 35.5196C79.6769 35.5196 80.4811 34.9767 81.1849 34.0317H81.2452V35.2381H83.879Z" fill="#838B7F"/>
<path d="M85.6475 35.2381H88.382V29.2465C88.382 27.8793 89.1259 26.9947 90.2317 26.9947C91.237 26.9947 91.8201 27.5978 91.8201 28.764V35.2381H94.5545V29.2465C94.5545 27.8793 95.2582 26.9947 96.4042 26.9947C97.4095 26.9947 97.9926 27.5978 97.9926 28.764V35.2381H100.727V28.3016C100.727 26.0497 99.5005 24.6423 97.3291 24.6423C96.0222 24.6423 94.9365 25.3259 94.2328 26.4518H94.1926C93.6899 25.3661 92.6444 24.6423 91.3375 24.6423C89.91 24.6423 88.9047 25.3661 88.3417 26.3111H88.2814V24.9238H85.6475V35.2381Z" fill="#838B7F"/>
<path d="M49.0293 17.572H51.7637V3.19629H49.0293V17.572Z" fill="#838B7F"/>
<path d="M58.4499 17.8736C61.6468 17.8736 63.8383 15.5011 63.8383 12.4249C63.8383 9.3487 61.6468 6.97621 58.4499 6.97621C55.2531 6.97621 53.0615 9.3487 53.0615 12.4249C53.0615 15.5011 55.2531 17.8736 58.4499 17.8736ZM58.4499 15.7826C56.761 15.7826 55.8362 14.4355 55.8362 12.4249C55.8362 10.4143 56.761 9.04712 58.4499 9.04712C60.1187 9.04712 61.0637 10.4143 61.0637 12.4249C61.0637 14.4355 60.1187 15.7826 58.4499 15.7826Z" fill="#838B7F"/>
<path d="M69.653 21.0906C71.1811 21.0906 72.5081 20.7287 73.3726 19.9244C74.1366 19.2207 74.5991 18.2355 74.5991 16.7879V7.25768H71.9652V8.3434H71.925C71.3017 7.47884 70.3568 6.9762 69.07 6.9762C66.4563 6.9762 64.6064 8.94658 64.6064 12.0228C64.6064 15.1392 66.8583 16.9487 69.1504 16.9487C70.4573 16.9487 71.2414 16.426 71.8446 15.7424H71.9049V16.8683C71.9049 18.2757 71.1611 19.0196 69.6129 19.0196C68.3462 19.0196 67.7632 18.517 67.542 17.8736H64.8276C65.1091 19.8842 66.8382 21.0906 69.653 21.0906ZM69.6129 14.7572C68.2055 14.7572 67.2805 13.7318 67.2805 11.9826C67.2805 10.2535 68.2054 9.16774 69.5927 9.16774C71.2414 9.16774 72.0456 10.4545 72.0456 11.9625C72.0456 13.4905 71.342 14.7572 69.6129 14.7572Z" fill="#838B7F"/>
<path d="M81.2458 17.8736C84.4426 17.8736 86.6342 15.5011 86.6342 12.4249C86.6342 9.3487 84.4426 6.97621 81.2458 6.97621C78.049 6.97621 75.8574 9.3487 75.8574 12.4249C75.8574 15.5011 78.049 17.8736 81.2458 17.8736ZM81.2458 15.7826C79.5569 15.7826 78.632 14.4355 78.632 12.4249C78.632 10.4143 79.5569 9.04712 81.2458 9.04712C82.9146 9.04712 83.8596 10.4143 83.8596 12.4249C83.8596 14.4355 82.9146 15.7826 81.2458 15.7826Z" fill="#838B7F"/>
<path d="M89.0312 13.6313H100.853V11.2789H89.0312V13.6313Z" fill="#838B7F"/>
<path d="M101.721 23.1717C101.721 22.709 102.096 22.3339 102.559 22.3339H104.234C104.697 22.3339 105.072 22.709 105.072 23.1717C105.072 23.6343 104.697 24.0094 104.234 24.0094H102.559C102.096 24.0094 101.721 23.6343 101.721 23.1717Z" fill="#838B7F"/>
<path fill-rule="evenodd" clip-rule="evenodd" d="M21.375 0C32.4207 0 41.375 8.9543 41.375 20C41.375 31.0457 32.4207 40 21.375 40C10.3293 40 1.375 31.0457 1.375 20C1.375 8.9543 10.3293 0 21.375 0ZM20.6521 1.49659C18.3705 1.81769 16.1979 3.65108 14.5114 6.7174C14.0222 7.60683 13.5808 8.58946 13.1961 9.65044C15.4893 9.07417 18.0084 8.73442 20.6521 8.68187V1.49659ZM11.5058 10.1308C11.9841 8.62958 12.5693 7.2484 13.2446 6.02065C14.0806 4.50059 15.0728 3.18795 16.1907 2.17977C10.1118 3.94523 5.32022 8.73679 3.55477 14.8157C4.56294 13.6978 5.87559 12.7056 7.39565 11.8696C8.6234 11.1943 10.0046 10.6091 11.5058 10.1308ZM11.0254 11.8211C10.4492 14.1143 10.1094 16.6334 10.0569 19.2771H2.87158C3.19269 16.9954 5.02608 14.8228 8.0924 13.1364C8.98183 12.6472 9.96446 12.2058 11.0254 11.8211ZM11.503 19.2771C11.5627 16.392 11.978 13.6834 12.6652 11.2902C15.0584 10.603 17.7671 10.1876 20.6521 10.1279V13.2508C19.5758 16.0062 17.3806 18.2012 14.6251 19.2771H11.503ZM10.0569 20.7229H2.87158C3.19269 23.0046 5.02608 25.1771 8.0924 26.8636C8.98183 27.3528 9.96446 27.7942 11.0254 28.1789C10.4492 25.8857 10.1094 23.3666 10.0569 20.7229ZM12.6652 28.7098C11.978 26.3166 11.5627 23.608 11.503 20.7229H14.6251C17.3806 21.7988 19.5759 23.9938 20.6521 26.7492V29.8721C17.7671 29.8124 15.0584 29.397 12.6652 28.7098ZM11.5058 29.8692C10.0046 29.3909 8.6234 28.8057 7.39565 28.1304C5.87559 27.2944 4.56294 26.3022 3.55477 25.1843C5.32022 31.2632 10.1118 36.0548 16.1907 37.8202C15.0728 36.812 14.0806 35.4994 13.2446 33.9793C12.5693 32.7516 11.9841 31.3704 11.5058 29.8692ZM20.6521 38.5034C18.3705 38.1823 16.1979 36.3489 14.5114 33.2826C14.0222 32.3932 13.5808 31.4105 13.1961 30.3496C15.4893 30.9258 18.0084 31.2656 20.6521 31.3181V38.5034ZM26.5593 37.8202C27.6772 36.812 28.6694 35.4994 29.5055 33.9793C30.1807 32.7516 30.7659 31.3704 31.2442 29.8692C32.7454 29.3909 34.1266 28.8057 35.3544 28.1304C36.8744 27.2944 38.1871 26.3022 39.1952 25.1843C37.4298 31.2632 32.6382 36.0548 26.5593 37.8202ZM29.5539 30.3496C29.1692 31.4105 28.7278 32.3932 28.2386 33.2826C26.5522 36.3489 24.3796 38.1823 22.0979 38.5034V31.3181C24.7416 31.2656 27.2607 30.9258 29.5539 30.3496ZM31.7246 28.1789C32.7855 27.7942 33.7682 27.3528 34.6576 26.8636C37.7239 25.1771 39.5573 23.0046 39.8784 20.7229H32.6931C32.6406 23.3666 32.3008 25.8857 31.7246 28.1789ZM31.2471 20.7229C31.1874 23.608 30.772 26.3166 30.0848 28.7098C27.6916 29.397 24.983 29.8124 22.0979 29.8721V26.7515C23.1738 23.9951 25.3695 21.7991 28.1258 20.7229H31.2471ZM32.6931 19.2771H39.8784C39.5573 16.9954 37.7239 14.8228 34.6576 13.1364C33.7682 12.6472 32.7855 12.2058 31.7246 11.8211C32.3008 14.1143 32.6406 16.6334 32.6931 19.2771ZM30.0848 11.2902C30.772 13.6834 31.1874 16.392 31.2471 19.2771H28.1258C25.3695 18.2009 23.1738 16.0049 22.0979 13.2485V10.1279C24.983 10.1876 27.6916 10.603 30.0848 11.2902ZM31.2442 10.1308C32.7454 10.6091 34.1266 11.1943 35.3544 11.8696C36.8744 12.7056 38.1871 13.6978 39.1952 14.8157C37.4298 8.73679 32.6382 3.94523 26.5593 2.17977C27.6772 3.18795 28.6694 4.50059 29.5055 6.02065C30.1807 7.2484 30.7659 8.62958 31.2442 10.1308ZM22.0979 1.49659C24.3796 1.81769 26.5522 3.65108 28.2386 6.7174C28.7278 7.60684 29.1692 8.58946 29.5539 9.65044C27.2607 9.07417 24.7416 8.73442 22.0979 8.68187V1.49659Z" fill="#838B7F"/>
</g>
<defs>
<clipPath id="clip0_6004_1796">
<rect width="105" height="40" fill="white" transform="translate(0.853516)"/>
</clipPath>
</defs>
</svg>
