<svg width="164" height="36" viewBox="0 0 164 36" fill="none" xmlns="http://www.w3.org/2000/svg">
<g clip-path="url(#clip0_6004_1773)">
<path fill-rule="evenodd" clip-rule="evenodd" d="M52.1064 2.39594C52.1064 1.17599 53.1062 0.187012 54.3396 0.187012H58.2299C59.1077 0.187012 59.9584 0.487918 60.6371 1.03851L61.8206 1.99846L61.8502 2.02516C61.8775 2.01605 61.9048 2.00715 61.9322 1.99846C64.0672 1.32202 66.6576 1.19338 69.3015 1.19338C71.9454 1.19338 74.5358 1.32202 76.6709 1.99846C76.6983 2.00715 76.7256 2.01605 76.7529 2.02516L76.7825 1.99846L77.9659 1.03851C78.6447 0.487918 79.4954 0.187012 80.3732 0.187012H84.2635C85.4969 0.187012 86.4966 1.17599 86.4966 2.39594V3.76146C86.4966 4.81797 86.0467 5.82561 85.2572 6.53718L84.3025 7.39766C83.8364 7.81774 83.277 8.12346 82.6694 8.29013L82.4436 8.35208C83.3282 10.44 83.8169 12.6718 83.8169 14.4773C83.8169 21.74 79.274 24.8766 75.2711 27.6404C72.1188 29.8169 69.3015 31.762 69.3015 35.309C69.3015 31.762 66.4842 29.8169 63.3319 27.6404C59.3291 24.8766 54.7862 21.74 54.7862 14.4773C54.7862 12.6718 55.2749 10.44 56.1595 8.35208L55.9337 8.29013C55.3261 8.12346 54.7667 7.81774 54.3006 7.39766L53.3459 6.53718C52.5564 5.82561 52.1064 4.81797 52.1064 3.76146V2.39594ZM72.2046 20.4148C72.2046 20.7618 72.0517 21.0945 71.7795 21.3399C71.5073 21.5853 71.1381 21.7231 70.753 21.7231C70.4207 21.7231 70.1 21.6203 69.8435 21.4343C70.2802 22.5907 71.3979 23.6864 73.0979 21.9244C74.5986 20.2871 73.0311 16.8338 71.504 14.7846C70.995 14.1016 70.1594 13.7728 69.3015 13.7728C68.4437 13.7728 67.608 14.1016 67.099 14.7846C65.5719 16.8338 64.0044 20.2871 65.5052 21.9244C67.2052 23.6864 68.3229 22.5907 68.7596 21.4343C68.503 21.6203 68.1824 21.7231 67.85 21.7231C67.465 21.7231 67.0958 21.5853 66.8236 21.3399C66.5514 21.0945 66.3984 20.7618 66.3984 20.4148H72.2046ZM63.7429 10.1925H59.6991L62.886 12.7166C63.5873 13.272 64.6123 13.0945 65.0463 12.3424C65.5942 11.3929 64.8664 10.1925 63.7429 10.1925ZM74.8602 10.1925H78.904L75.7171 12.7166C75.0158 13.272 73.9908 13.0945 73.5568 12.3424C73.0089 11.3929 73.7367 10.1925 74.8602 10.1925Z" fill="#838B7F"/>
<path d="M91.3135 25.0651H94.8959V11.5519H91.3135V25.0651ZM91.3135 9.44456H94.8959V6.2309H91.3135V9.44456Z" fill="#838B7F"/>
<path d="M97.2041 29.4904H100.787V23.5372H100.839C101.603 24.6963 102.841 25.4602 104.738 25.4602C108.215 25.4602 110.586 22.6943 110.586 18.3216C110.586 14.107 108.294 11.1831 104.711 11.1831C102.868 11.1831 101.603 12.0524 100.734 13.2377H100.655V11.5519H97.2041V29.4904ZM103.974 22.4836C101.84 22.4836 100.708 20.8767 100.708 18.427C100.708 16.0036 101.603 14.0807 103.842 14.0807C106.055 14.0807 106.95 15.8719 106.95 18.427C106.95 20.9821 105.791 22.4836 103.974 22.4836Z" fill="#838B7F"/>
<path d="M117.732 25.4602C121.104 25.4602 123.422 23.827 123.422 21.1138C123.422 17.9528 120.919 17.3207 118.654 16.8465C116.731 16.4514 114.94 16.346 114.94 15.187C114.94 14.2124 115.862 13.6855 117.258 13.6855C118.786 13.6855 119.708 14.2124 119.866 15.6611H123.106C122.842 12.948 120.867 11.1831 117.311 11.1831C114.229 11.1831 111.805 12.5792 111.805 15.5031C111.805 18.4533 114.176 19.1119 116.599 19.586C118.443 19.9548 120.156 20.0865 120.156 21.3772C120.156 22.3255 119.26 22.9314 117.679 22.9314C116.073 22.9314 114.966 22.2465 114.729 20.6924H111.41C111.621 23.5636 113.807 25.4602 117.732 25.4602Z" fill="#838B7F"/>
<path d="M137.023 25.0651V11.5519H133.441V19.349C133.441 21.1402 132.414 22.4046 130.728 22.4046C129.2 22.4046 128.489 21.5353 128.489 19.9548V11.5519H124.933V20.5607C124.933 23.5109 126.618 25.4338 129.621 25.4338C131.518 25.4338 132.572 24.7226 133.494 23.4846H133.573V25.0651H137.023Z" fill="#838B7F"/>
<path d="M139.341 25.065H142.923V17.2153C142.923 15.4241 143.898 14.265 145.347 14.265C146.664 14.265 147.428 15.0553 147.428 16.5831V25.065H151.01V17.2153C151.01 15.4241 151.932 14.265 153.434 14.265C154.751 14.265 155.514 15.0553 155.514 16.5831V25.065H159.097V15.9772C159.097 13.027 157.49 11.1831 154.645 11.1831C152.933 11.1831 151.511 12.0787 150.589 13.5538H150.536C149.877 12.1314 148.508 11.1831 146.795 11.1831C144.925 11.1831 143.608 12.1314 142.871 13.3694H142.792V11.5519H139.341V25.065Z" fill="#838B7F"/>
<path d="M0.869141 25.0651H4.45158V6.2309H0.869141V25.0651Z" fill="#838B7F"/>
<path d="M13.2109 25.4602C17.3992 25.4602 20.2704 22.3519 20.2704 18.3216C20.2704 14.2914 17.3992 11.1831 13.2109 11.1831C9.02259 11.1831 6.15137 14.2914 6.15137 18.3216C6.15137 22.3519 9.02259 25.4602 13.2109 25.4602ZM13.2109 22.7207C10.9982 22.7207 9.78653 20.9558 9.78653 18.3216C9.78653 15.6875 10.9982 13.8963 13.2109 13.8963C15.3973 13.8963 16.6353 15.6875 16.6353 18.3216C16.6353 20.9558 15.3973 22.7207 13.2109 22.7207Z" fill="#838B7F"/>
<path d="M27.8891 29.6748C29.891 29.6748 31.6295 29.2007 32.7622 28.147C33.7632 27.225 34.3691 25.9343 34.3691 24.0377V11.5519H30.9183V12.9743H30.8656C30.0491 11.8416 28.811 11.1831 27.1251 11.1831C23.7008 11.1831 21.2773 13.7646 21.2773 17.7948C21.2773 21.8777 24.2276 24.2485 27.2305 24.2485C28.9427 24.2485 29.97 23.5636 30.7603 22.668H30.8393V24.1431C30.8393 25.987 29.8647 26.9616 27.8364 26.9616C26.1769 26.9616 25.413 26.3031 25.1232 25.4602H21.5671C21.9359 28.0943 24.2012 29.6748 27.8891 29.6748ZM27.8364 21.3772C25.9925 21.3772 24.7808 20.0338 24.7808 17.7421C24.7808 15.4767 25.9925 14.0543 27.81 14.0543C29.97 14.0543 31.0237 15.7402 31.0237 17.7158C31.0237 19.7177 30.1017 21.3772 27.8364 21.3772Z" fill="#838B7F"/>
<path d="M43.0771 25.4602C47.2654 25.4602 50.1366 22.3519 50.1366 18.3216C50.1366 14.2914 47.2654 11.1831 43.0771 11.1831C38.8888 11.1831 36.0176 14.2914 36.0176 18.3216C36.0176 22.3519 38.8888 25.4602 43.0771 25.4602ZM43.0771 22.7207C40.8644 22.7207 39.6527 20.9558 39.6527 18.3216C39.6527 15.6875 40.8644 13.8963 43.0771 13.8963C45.2634 13.8963 46.5015 15.6875 46.5015 18.3216C46.5015 20.9558 45.2634 22.7207 43.0771 22.7207Z" fill="#838B7F"/>
<path d="M158.936 8.60162C158.936 7.99545 159.426 7.50406 160.033 7.50406H162.228C162.834 7.50406 163.326 7.99545 163.326 8.60162C163.326 9.20775 162.834 9.69919 162.228 9.69919H160.033C159.426 9.69919 158.936 9.20775 158.936 8.60162Z" fill="#838B7F"/>
</g>
<defs>
<clipPath id="clip0_6004_1773">
<rect width="163.317" height="36" fill="white" transform="translate(0.268555)"/>
</clipPath>
</defs>
</svg>
