<svg width="150" height="36" viewBox="0 0 150 36" fill="none" xmlns="http://www.w3.org/2000/svg">
<g clip-path="url(#clip0_6004_1785)">
<path d="M45.6094 25.747H56.1038V22.586H49.3393V10.6797H45.6094V25.747Z" fill="#838B7F"/>
<path d="M62.3213 23.6399C60.8251 23.6399 60.0454 22.3334 60.0454 20.3735C60.0454 18.4137 60.8251 17.0861 62.3213 17.0861C63.8175 17.0861 64.6183 18.4137 64.6183 20.3735C64.6183 22.3334 63.8175 23.6399 62.3213 23.6399ZM62.3424 26.0844C65.8195 26.0844 68.0954 23.6188 68.0954 20.3735C68.0954 17.1283 65.8195 14.6627 62.3424 14.6627C58.8864 14.6627 56.5684 17.1283 56.5684 20.3735C56.5684 23.6188 58.8864 26.0844 62.3424 26.0844Z" fill="#838B7F"/>
<path d="M74.1134 29.4771C75.7149 29.4771 77.1268 29.1189 78.0751 28.2759C78.9391 27.4962 79.5081 26.3161 79.5081 24.6935V14.9577H76.2207V16.1167H76.1786C75.5464 15.2106 74.577 14.6416 73.144 14.6416C70.4677 14.6416 68.6133 16.8754 68.6133 20.0363C68.6133 23.3448 70.8681 25.1571 73.2915 25.1571C74.5981 25.1571 75.4199 24.6303 76.0521 23.9138H76.1364V24.9885C76.1364 26.2951 75.5253 27.0537 74.0712 27.0537C72.9333 27.0537 72.3643 26.569 72.1746 26H68.8451C69.1823 28.2549 71.1421 29.4771 74.1134 29.4771ZM74.0923 22.6073C72.8068 22.6073 71.9639 21.5536 71.9639 19.931C71.9639 18.2873 72.8068 17.2336 74.0923 17.2336C75.5253 17.2336 76.2839 18.4558 76.2839 19.9099C76.2839 21.4272 75.5885 22.6073 74.0923 22.6073Z" fill="#838B7F"/>
<path d="M86.2676 23.6399C84.7714 23.6399 83.9917 22.3334 83.9917 20.3735C83.9917 18.4137 84.7714 17.0861 86.2676 17.0861C87.7638 17.0861 88.5642 18.4137 88.5642 20.3735C88.5642 22.3334 87.7638 23.6399 86.2676 23.6399ZM86.2887 26.0844C89.7654 26.0844 92.0413 23.6188 92.0413 20.3735C92.0413 17.1283 89.7654 14.6627 86.2887 14.6627C82.8327 14.6627 80.5146 17.1283 80.5146 20.3735C80.5146 23.6188 82.8327 26.0844 86.2887 26.0844Z" fill="#838B7F"/>
<path d="M93.0449 25.747H96.4798V14.9575H93.0449V25.747ZM93.0449 13.4613H96.4798V10.6797H93.0449V13.4613Z" fill="#838B7F"/>
<path d="M97.9707 29.3085H101.406V24.6303H101.448C102.122 25.5364 103.113 26.0843 104.503 26.0843C107.327 26.0843 109.203 23.8506 109.203 20.3524C109.203 17.1072 107.454 14.6416 104.588 14.6416C103.113 14.6416 102.059 15.2949 101.321 16.2642H101.258V14.9577H97.9707V29.3085ZM103.618 23.4291C102.143 23.4291 101.3 22.2279 101.3 20.4789C101.3 18.7298 102.059 17.4022 103.555 17.4022C105.03 17.4022 105.726 18.6244 105.726 20.4789C105.726 22.3122 104.925 23.4291 103.618 23.4291Z" fill="#838B7F"/>
<path d="M114.794 26.0843C117.618 26.0843 119.704 24.8621 119.704 22.5019C119.704 19.7413 117.47 19.2566 115.574 18.9405C114.204 18.6877 112.982 18.5823 112.982 17.8237C112.982 17.1493 113.635 16.8332 114.478 16.8332C115.426 16.8332 116.08 17.1282 116.206 18.0976H119.367C119.198 15.9692 117.555 14.6416 114.499 14.6416C111.949 14.6416 109.842 15.8217 109.842 18.0976C109.842 20.6264 111.844 21.1321 113.719 21.4482C115.152 21.7011 116.459 21.8065 116.459 22.7758C116.459 23.4713 115.806 23.8506 114.773 23.8506C113.635 23.8506 112.919 23.3237 112.792 22.249H109.547C109.652 24.6303 111.633 26.0843 114.794 26.0843Z" fill="#838B7F"/>
<path d="M124.37 26.0633C125.867 26.0633 126.815 25.4732 127.595 24.4196H127.658V25.7472H130.945V14.9577H127.51V20.9847C127.51 22.2701 126.794 23.1552 125.614 23.1552C124.518 23.1552 123.991 22.5019 123.991 21.3218V14.9577H120.577V22.0383C120.577 24.4407 121.884 26.0633 124.37 26.0633Z" fill="#838B7F"/>
<path d="M132.439 25.7472H135.874V19.6992C135.874 18.4137 136.507 17.5076 137.581 17.5076C138.614 17.5076 139.099 18.1819 139.099 19.3409V25.7472H142.534V19.6992C142.534 18.4137 143.145 17.5076 144.24 17.5076C145.273 17.5076 145.758 18.1819 145.758 19.3409V25.7472H149.193V18.7298C149.193 16.3064 147.97 14.6416 145.526 14.6416C144.135 14.6416 142.976 15.2317 142.133 16.5382H142.091C141.543 15.3792 140.468 14.6416 139.056 14.6416C137.497 14.6416 136.464 15.3792 135.79 16.496H135.727V14.9577H132.439V25.7472Z" fill="#838B7F"/>
<path fill-rule="evenodd" clip-rule="evenodd" d="M18.2348 35.4057C27.9335 35.4057 35.7957 27.5434 35.7957 17.8448C35.7957 8.14614 27.9335 0.283829 18.2348 0.283829C8.53613 0.283829 0.673828 8.14614 0.673828 17.8448C0.673828 27.5434 8.53613 35.4057 18.2348 35.4057ZM20.9453 13.8519C22.4422 12.3549 22.4422 9.92793 20.9453 8.43094C19.4483 6.93398 17.0213 6.93398 15.5243 8.43094C14.0274 9.92793 14.0274 12.3549 15.5243 13.8519L18.2348 16.5624L20.9453 13.8519ZM22.2277 20.5553C23.7247 22.0523 26.1517 22.0523 27.6487 20.5553C29.1456 19.0583 29.1456 16.6313 27.6487 15.1343C26.1517 13.6374 23.7247 13.6374 22.2277 15.1343L19.5172 17.8449L22.2277 20.5553ZM20.9453 27.2587C22.4422 25.7617 22.4422 23.3347 20.9453 21.8377L18.2348 19.1272L15.5243 21.8377C14.0274 23.3347 14.0274 25.7617 15.5243 27.2587C17.0213 28.7557 19.4483 28.7557 20.9453 27.2587ZM8.82092 20.5553C7.32398 19.0583 7.32398 16.6313 8.82092 15.1343C10.3179 13.6374 12.7449 13.6374 14.2419 15.1343L16.9524 17.8449L14.2419 20.5553C12.7449 22.0523 10.3179 22.0523 8.82092 20.5553Z" fill="#838B7F"/>
</g>
<defs>
<clipPath id="clip0_6004_1785">
<rect width="149.268" height="36" fill="white" transform="translate(0.584961)"/>
</clipPath>
</defs>
</svg>
