<svg width="140" height="36" viewBox="0 0 140 36" fill="none" xmlns="http://www.w3.org/2000/svg">
<path d="M41.666 11.3287H45.041V24.975H41.666V11.3287ZM46.3798 19.8225C46.3798 16.4475 48.4498 14.4337 51.6448 14.4337C54.8398 14.4337 56.9098 16.4475 56.9098 19.8225C56.9098 23.1975 54.8848 25.2225 51.6448 25.2225C48.4048 25.2225 46.3798 23.2537 46.3798 19.8225ZM53.5235 19.8225C53.5235 17.9662 52.7923 16.875 51.6448 16.875C50.4973 16.875 49.7773 18 49.7773 19.8225C49.7773 21.645 50.486 22.7475 51.6448 22.7475C52.8035 22.7475 53.5235 21.7125 53.5235 19.8337V19.8225ZM58.181 25.6387H61.421C61.5753 25.9813 61.8359 26.2649 62.1643 26.4474C62.4927 26.6298 62.8713 26.7013 63.2435 26.6512C64.526 26.6512 65.201 25.9537 65.201 24.9412V23.0512H65.1335C64.8646 23.6305 64.4283 24.1158 63.8808 24.4448C63.3334 24.7736 62.6999 24.9309 62.0623 24.8962C59.5985 24.8962 57.9673 23.0175 57.9673 19.7887C57.9673 16.56 59.5198 14.5237 62.1073 14.5237C62.7649 14.498 63.4147 14.6738 63.9697 15.0276C64.5247 15.3816 64.9582 15.8966 65.2123 16.5037V14.625H68.5873V24.8625C68.5873 27.3262 66.416 28.8562 63.2098 28.8562C60.2285 28.8562 58.3723 27.5175 58.181 25.65V25.6387ZM65.2123 19.8112C65.2123 18.1687 64.4585 17.1337 63.266 17.1337C62.0735 17.1337 61.3423 18.1575 61.3423 19.8112C61.3423 21.465 62.0623 22.3987 63.266 22.3987C64.4698 22.3987 65.2123 21.4875 65.2123 19.8225V19.8112ZM69.8585 19.8112C69.8585 16.4362 71.9285 14.4225 75.1235 14.4225C78.3185 14.4225 80.3998 16.4362 80.3998 19.8112C80.3998 23.1862 78.3748 25.2112 75.1235 25.2112C71.8723 25.2112 69.8585 23.2537 69.8585 19.8225V19.8112ZM77.0023 19.8112C77.0023 17.955 76.271 16.8637 75.1235 16.8637C73.976 16.8637 73.3123 18 73.3123 19.8337C73.3123 21.6675 74.021 22.7587 75.1685 22.7587C76.316 22.7587 77.0023 21.7125 77.0023 19.8337V19.8112ZM81.6823 12.1725C81.6734 11.8317 81.766 11.496 81.9481 11.2079C82.1304 10.9198 82.3939 10.6923 82.7056 10.5542C83.0172 10.4161 83.3628 10.3736 83.6986 10.4322C84.0344 10.4907 84.3453 10.6477 84.5917 10.8831C84.8383 11.1186 85.0093 11.4219 85.0833 11.7547C85.1572 12.0874 85.1306 12.4346 85.0069 12.7523C84.8832 13.0699 84.668 13.3437 84.3886 13.5389C84.1092 13.7341 83.778 13.842 83.4373 13.8487C83.2114 13.8643 82.9847 13.8329 82.7715 13.7566C82.5582 13.6803 82.3631 13.5609 82.1983 13.4055C82.0335 13.2502 81.9025 13.0625 81.8138 12.8541C81.7249 12.6459 81.6801 12.4215 81.6823 12.195V12.1725ZM81.6823 14.6475H85.0573V24.975H81.6823V14.6475ZM97.3085 19.8112C97.3085 23.1862 95.8123 25.11 93.2473 25.11C92.5896 25.1522 91.9347 24.9914 91.3713 24.6494C90.8079 24.3073 90.3632 23.8005 90.0973 23.1975H90.0298V28.2825H86.6548V14.625H90.0298V16.47H90.0973C90.3508 15.857 90.7871 15.337 91.3467 14.9807C91.9063 14.6244 92.562 14.4492 93.2248 14.4787C95.8123 14.5237 97.3535 16.4587 97.3535 19.8337L97.3085 19.8112ZM93.9335 19.8112C93.9335 18.1687 93.1798 17.1225 91.9985 17.1225C90.8173 17.1225 90.0635 18.18 90.0523 19.8112C90.041 21.4425 90.8173 22.4887 91.9985 22.4887C93.1798 22.4887 93.9335 21.465 93.9335 19.8337V19.8112ZM103.102 14.4112C105.904 14.4112 107.602 15.7387 107.681 17.865H104.61C104.61 17.1337 104.002 16.6725 103.069 16.6725C102.135 16.6725 101.719 17.0325 101.719 17.5612C101.719 18.09 102.09 18.2587 102.844 18.4162L105.004 18.855C107.062 19.2937 107.94 20.1262 107.94 21.69C107.94 23.8275 105.994 25.2 103.125 25.2C100.256 25.2 98.3773 23.8275 98.231 21.7237H101.482C101.584 22.4887 102.191 22.9387 103.181 22.9387C104.171 22.9387 104.621 22.6125 104.621 22.0725C104.621 21.5325 104.306 21.42 103.496 21.2512L101.55 20.835C99.536 20.4187 98.4785 19.35 98.4785 17.775C98.501 15.75 100.312 14.4337 103.102 14.4337V14.4112ZM119.201 24.9525H115.95V23.0287H115.882C115.703 23.6746 115.31 24.2399 114.765 24.6309C114.221 25.0217 113.559 25.2146 112.89 25.1775C112.377 25.2066 111.864 25.1254 111.385 24.9392C110.907 24.753 110.473 24.4664 110.115 24.0984C109.757 23.7305 109.482 23.2899 109.308 22.8064C109.135 22.323 109.067 21.808 109.11 21.2962V14.625H112.485V20.52C112.485 21.7462 113.115 22.3987 114.161 22.3987C114.406 22.3992 114.649 22.3473 114.873 22.2464C115.096 22.1455 115.296 21.9979 115.458 21.8136C115.619 21.6292 115.741 21.4125 115.811 21.1778C115.882 20.943 115.904 20.6957 115.871 20.4525V14.625H119.246L119.201 24.9525ZM120.832 14.625H124.095V16.6162H124.162C124.341 15.9789 124.727 15.4189 125.258 15.024C125.789 14.6292 126.437 14.4215 127.099 14.4337C127.772 14.3799 128.441 14.5813 128.973 14.9983C129.504 15.4152 129.859 16.0168 129.967 16.6837H130.035C130.238 16.0098 130.661 15.423 131.236 15.0156C131.81 14.6082 132.504 14.4035 133.207 14.4337C133.666 14.4183 134.123 14.4997 134.548 14.6725C134.975 14.8452 135.358 15.1056 135.677 15.4366C135.995 15.7677 136.24 16.162 136.397 16.5939C136.552 17.0257 136.616 17.4858 136.582 17.9437V24.975H133.207V18.8437C133.207 17.7187 132.701 17.2012 131.756 17.2012C131.546 17.1994 131.336 17.2429 131.144 17.3286C130.952 17.4143 130.78 17.5403 130.64 17.6982C130.501 17.856 130.396 18.0418 130.334 18.2433C130.272 18.4449 130.255 18.6573 130.282 18.8662V24.975H127.076V18.7987C127.076 17.7637 126.57 17.2012 125.647 17.2012C125.435 17.2014 125.223 17.2466 125.03 17.334C124.835 17.4215 124.661 17.5492 124.52 17.7086C124.378 17.868 124.273 18.0557 124.208 18.2592C124.145 18.4626 124.125 18.6771 124.151 18.8887V24.975H120.776L120.832 14.625Z" fill="#838B7F"/>
<path d="M32.2278 11.9475C31.6553 10.6384 30.8976 9.41842 29.9778 8.325C28.6182 6.66038 26.9215 5.30256 24.9993 4.34093C23.0772 3.3793 20.9731 2.83564 18.8257 2.74574C16.6783 2.65584 14.5362 3.02174 12.5403 3.81936C10.5445 4.61698 8.74023 5.82823 7.24626 7.3734C5.75229 8.91855 4.60248 10.7626 3.87252 12.7842C3.14257 14.8057 2.849 16.9589 3.01116 19.1021C3.17333 21.2453 3.78752 23.3298 4.81334 25.2185C5.83916 27.1072 7.25334 28.7573 8.9628 30.06C10.0597 30.9126 11.2717 31.6058 12.5628 32.1188C14.3729 32.8606 16.3103 33.2426 18.2665 33.2438C22.3046 33.2349 26.1744 31.6252 29.0277 28.7677C31.881 25.9102 33.4849 22.0381 33.4878 18C33.4907 15.9171 33.0618 13.8562 32.2278 11.9475ZM18.2553 5.83874C20.0121 5.83856 21.7476 6.22252 23.3403 6.96374C22.9519 7.13156 22.5436 7.24877 22.1253 7.3125C20.749 7.51173 19.474 8.1507 18.4906 9.13407C17.5073 10.1174 16.8683 11.3924 16.669 12.7688C16.5816 13.5406 16.2305 14.2587 15.6751 14.8019C15.1197 15.345 14.394 15.6798 13.6203 15.75C12.244 15.9492 10.969 16.5882 9.98562 17.5716C9.00227 18.555 8.36328 19.8299 8.16405 21.2063C8.0966 21.9402 7.78345 22.6299 7.2753 23.1638C6.39853 21.3112 6.00467 19.2669 6.13035 17.2212C6.25604 15.1755 6.89719 13.1948 7.99414 11.4634C9.09108 9.73214 10.6082 8.30645 12.4043 7.31907C14.2003 6.33169 16.217 5.81472 18.2665 5.81624L18.2553 5.83874ZM8.95155 25.875C9.08655 25.7513 9.22155 25.6388 9.35655 25.5038C10.3574 24.5334 10.9999 23.2525 11.1791 21.87C11.2517 21.0929 11.5987 20.367 12.1578 19.8225C12.6959 19.2625 13.42 18.9183 14.194 18.855C15.5704 18.6558 16.8453 18.0168 17.8287 17.0334C18.8121 16.05 19.4511 14.7751 19.6503 13.3988C19.699 12.5859 20.0478 11.8202 20.629 11.25C21.1804 10.7008 21.9114 10.3692 22.6878 10.3162C23.9522 10.1423 25.1314 9.58017 26.0628 8.7075C27.1233 9.58733 28.0218 10.6458 28.7178 11.835C28.675 11.8927 28.626 11.9456 28.5715 11.9925C28.0346 12.5575 27.3113 12.9092 26.5353 12.9825C25.1575 13.1783 23.8806 13.8161 22.8966 14.8001C21.9127 15.7841 21.2748 17.061 21.079 18.4388C20.9997 19.2132 20.6551 19.9365 20.1037 20.4859C19.5521 21.0355 18.8276 21.3774 18.0528 21.4538C16.6724 21.6514 15.3927 22.2892 14.4036 23.2721C13.4146 24.2551 12.769 25.5309 12.5628 26.91C12.5023 27.4598 12.3134 27.9878 12.0115 28.4513C10.8573 27.7659 9.82353 26.8956 8.95155 25.875ZM18.2553 30.2175C17.1138 30.2187 15.9776 30.0597 14.8803 29.745C15.2557 29.0453 15.4997 28.2826 15.6003 27.495C15.6792 26.7222 16.0222 26.0003 16.5714 25.4511C17.1206 24.9019 17.8425 24.5589 18.6153 24.48C19.9936 24.283 21.2712 23.645 22.2568 22.6614C23.2423 21.678 23.883 20.4017 24.0828 19.0238C24.1617 18.251 24.5047 17.5291 25.0539 16.9799C25.6031 16.4306 26.325 16.0876 27.0978 16.0087C28.135 15.8739 29.1237 15.4876 29.9778 14.8837C30.4521 16.6814 30.5082 18.5637 30.142 20.3865C29.7759 22.2092 28.9969 23.9239 27.8652 25.3989C26.7334 26.8738 25.2789 28.07 23.613 28.8955C21.9472 29.721 20.1145 30.1541 18.2553 30.1613V30.2175Z" fill="#838B7F"/>
</svg>
