<svg width="20" height="20" viewBox="0 0 20 20" fill="none" xmlns="http://www.w3.org/2000/svg">
<path fill-rule="evenodd" clip-rule="evenodd" d="M15.8333 1.6665C16.1023 2.91908 17.0807 3.89753 18.3333 4.1665C17.0807 4.43548 16.1023 5.41393 15.8333 6.6665C15.5643 5.41393 14.5859 4.43548 13.3333 4.1665C14.5859 3.89753 15.5643 2.91908 15.8333 1.6665ZM7.56 1.83317C8.31958 5.37044 11.0827 8.13359 14.62 8.89317C11.0827 9.65276 8.31958 12.4159 7.56 15.9532C6.80042 12.4159 4.03726 9.65276 0.5 8.89317C4.03726 8.13359 6.80042 5.37044 7.56 1.83317ZM18.3333 14.9998C16.6632 14.6412 15.3586 13.3366 15 11.6665C14.6413 13.3366 13.3367 14.6412 11.6666 14.9998C13.3367 15.3585 14.6413 16.6631 15 18.3332C15.3586 16.6631 16.6632 15.3585 18.3333 14.9998Z" fill="#3A7326"/>
</svg>
