<svg width="22" height="20" viewBox="0 0 22 20" fill="none" xmlns="http://www.w3.org/2000/svg">
<path fill-rule="evenodd" clip-rule="evenodd" d="M18.9996 0C19.3223 1.50309 20.4965 2.67723 21.9996 3C20.4965 3.32277 19.3223 4.49691 18.9996 6C18.6768 4.49691 17.5026 3.32277 15.9996 3C17.5026 2.67723 18.6768 1.50309 18.9996 0ZM9.07161 0.200003C9.98311 4.44472 13.2989 7.7605 17.5436 8.672C13.2989 9.5835 9.98311 12.8993 9.07161 17.144C8.16011 12.8993 4.84433 9.5835 0.599609 8.672C4.84433 7.7605 8.16011 4.44472 9.07161 0.200003ZM21.9996 16C19.9954 15.5696 18.4299 14.0041 17.9996 12C17.5692 14.0041 16.0037 15.5696 13.9996 16C16.0037 16.4304 17.5692 17.9959 17.9996 20C18.4299 17.9959 19.9954 16.4304 21.9996 16Z" fill="white"/>
</svg>
